<svg xmlns="http://www.w3.org/2000/svg" width="1280" height="720" viewBox="0 0 1280 720" role="img" aria-label="Edit screen mock">
  <defs>
    <linearGradient id="bg3" x1="0" y1="0" x2="1" y2="1">
      <stop offset="0%" stop-color="#ecfeff" />
      <stop offset="100%" stop-color="#f8fafc" />
    </linearGradient>
    <filter id="shadow3" x="-20%" y="-20%" width="140%" height="140%">
      <feDropShadow dx="0" dy="6" stdDeviation="10" flood-color="#0f172a" flood-opacity="0.17" />
    </filter>
  </defs>

  <rect width="1280" height="720" fill="url(#bg3)" />
  <rect x="0" y="0" width="1280" height="84" fill="#0f172a" />
  <text x="44" y="54" font-family="Arial, sans-serif" font-size="30" fill="#f8fafc" font-weight="700">Edit Product</text>
  <text x="950" y="50" font-family="Arial, sans-serif" font-size="18" fill="#cbd5e1">Logged in: admin</text>

  <rect x="250" y="130" width="780" height="500" rx="18" fill="#ffffff" filter="url(#shadow3)" />
  <text x="300" y="192" font-family="Arial, sans-serif" font-size="30" fill="#0f172a" font-weight="700">Product Form</text>

  <text x="300" y="246" font-family="Arial, sans-serif" font-size="16" fill="#334155">Name</text>
  <rect x="300" y="262" width="680" height="56" rx="10" fill="#f8fafc" stroke="#d1d5db" />
  <text x="324" y="298" font-family="Arial, sans-serif" font-size="19" fill="#111827">Product 4</text>

  <text x="300" y="360" font-family="Arial, sans-serif" font-size="16" fill="#334155">Price</text>
  <rect x="300" y="376" width="680" height="56" rx="10" fill="#f8fafc" stroke="#d1d5db" />
  <text x="324" y="412" font-family="Arial, sans-serif" font-size="19" fill="#111827">400</text>

  <rect x="300" y="482" width="160" height="50" rx="10" fill="#2563eb" />
  <text x="380" y="514" text-anchor="middle" font-family="Arial, sans-serif" font-size="18" fill="#ffffff" font-weight="700">Update</text>

  <rect x="478" y="482" width="140" height="50" rx="10" fill="#64748b" />
  <text x="548" y="514" text-anchor="middle" font-family="Arial, sans-serif" font-size="18" fill="#ffffff" font-weight="700">Back</text>

  <rect x="300" y="552" width="680" height="56" rx="10" fill="#fef2f2" stroke="#fecaca" />
  <text x="324" y="587" font-family="Arial, sans-serif" font-size="17" fill="#b91c1c">
    Validation sample: "Price must be between 0 and 1,000,000"
  </text>
</svg>
