<svg xmlns="http://www.w3.org/2000/svg" width="1280" height="720" viewBox="0 0 1280 720" role="img" aria-label="Index screen mock">
  <defs>
    <linearGradient id="bg2" x1="0" y1="0" x2="1" y2="1">
      <stop offset="0%" stop-color="#eef2ff" />
      <stop offset="100%" stop-color="#f8fafc" />
    </linearGradient>
    <filter id="shadow2" x="-20%" y="-20%" width="140%" height="140%">
      <feDropShadow dx="0" dy="6" stdDeviation="10" flood-color="#111827" flood-opacity="0.16" />
    </filter>
  </defs>

  <rect width="1280" height="720" fill="url(#bg2)" />
  <rect x="0" y="0" width="1280" height="84" fill="#111827" />
  <text x="44" y="54" font-family="Arial, sans-serif" font-size="30" fill="#f9fafb" font-weight="700">Product Management App</text>
  <text x="940" y="50" font-family="Arial, sans-serif" font-size="18" fill="#d1d5db">Logged in: admin</text>
  <rect x="1120" y="26" width="120" height="36" rx="8" fill="#4b5563" />
  <text x="1180" y="49" text-anchor="middle" font-family="Arial, sans-serif" font-size="16" fill="#ffffff">Logout</text>

  <rect x="44" y="112" width="390" height="564" rx="16" fill="#ffffff" filter="url(#shadow2)" />
  <text x="72" y="160" font-family="Arial, sans-serif" font-size="28" fill="#0f172a" font-weight="700">Create Product</text>
  <text x="72" y="210" font-family="Arial, sans-serif" font-size="15" fill="#475569">Name</text>
  <rect x="72" y="224" width="334" height="48" rx="10" fill="#f8fafc" stroke="#d1d5db" />
  <text x="88" y="256" font-family="Arial, sans-serif" font-size="16" fill="#94a3b8">Laptop</text>
  <text x="72" y="306" font-family="Arial, sans-serif" font-size="15" fill="#475569">Price</text>
  <rect x="72" y="320" width="334" height="48" rx="10" fill="#f8fafc" stroke="#d1d5db" />
  <text x="88" y="352" font-family="Arial, sans-serif" font-size="16" fill="#94a3b8">120000</text>
  <rect x="72" y="392" width="130" height="46" rx="10" fill="#2563eb" />
  <text x="137" y="422" text-anchor="middle" font-family="Arial, sans-serif" font-size="18" fill="#ffffff" font-weight="700">Save</text>

  <rect x="458" y="112" width="778" height="564" rx="16" fill="#ffffff" filter="url(#shadow2)" />
  <text x="486" y="160" font-family="Arial, sans-serif" font-size="28" fill="#0f172a" font-weight="700">Products</text>

  <rect x="486" y="186" width="722" height="54" fill="#eff6ff" />
  <text x="512" y="220" font-family="Arial, sans-serif" font-size="16" fill="#1e3a8a" font-weight="700">ID</text>
  <text x="620" y="220" font-family="Arial, sans-serif" font-size="16" fill="#1e3a8a" font-weight="700">Name</text>
  <text x="900" y="220" font-family="Arial, sans-serif" font-size="16" fill="#1e3a8a" font-weight="700">Price</text>
  <text x="1040" y="220" font-family="Arial, sans-serif" font-size="16" fill="#1e3a8a" font-weight="700">Actions</text>

  <rect x="486" y="240" width="722" height="58" fill="#ffffff" stroke="#e5e7eb" />
  <text x="512" y="276" font-family="Arial, sans-serif" font-size="16" fill="#111827">1</text>
  <text x="620" y="276" font-family="Arial, sans-serif" font-size="16" fill="#111827">Product 1</text>
  <text x="900" y="276" font-family="Arial, sans-serif" font-size="16" fill="#111827">100</text>
  <rect x="1024" y="252" width="72" height="34" rx="7" fill="#6b7280" />
  <text x="1060" y="274" text-anchor="middle" font-family="Arial, sans-serif" font-size="14" fill="#ffffff">Edit</text>
  <rect x="1110" y="252" width="80" height="34" rx="7" fill="#dc2626" />
  <text x="1150" y="274" text-anchor="middle" font-family="Arial, sans-serif" font-size="14" fill="#ffffff">Delete</text>

  <rect x="486" y="298" width="722" height="58" fill="#ffffff" stroke="#e5e7eb" />
  <text x="512" y="334" font-family="Arial, sans-serif" font-size="16" fill="#111827">2</text>
  <text x="620" y="334" font-family="Arial, sans-serif" font-size="16" fill="#111827">Product 2</text>
  <text x="900" y="334" font-family="Arial, sans-serif" font-size="16" fill="#111827">200</text>
  <rect x="1024" y="310" width="72" height="34" rx="7" fill="#6b7280" />
  <text x="1060" y="332" text-anchor="middle" font-family="Arial, sans-serif" font-size="14" fill="#ffffff">Edit</text>
  <rect x="1110" y="310" width="80" height="34" rx="7" fill="#dc2626" />
  <text x="1150" y="332" text-anchor="middle" font-family="Arial, sans-serif" font-size="14" fill="#ffffff">Delete</text>

  <rect x="486" y="590" width="722" height="62" rx="10" fill="#ecfdf5" stroke="#86efac" />
  <text x="516" y="628" font-family="Arial, sans-serif" font-size="18" fill="#166534">
    Class Point: Delete button is rendered only when isAdmin = true.
  </text>
</svg>
